<svg width="184" height="42" viewBox="0 0 184 42" fill="none" xmlns="http://www.w3.org/2000/svg">
<path d="M49.5062 30C49.3096 30 49.2113 29.9017 49.2113 29.705V16.5048H44.9833C44.7866 16.5048 44.6883 16.4065 44.6883 16.2098V14.1941C44.6883 13.9975 44.7866 13.8991 44.9833 13.8991H56.4136C56.6103 13.8991 56.7086 13.9975 56.7086 14.1941V16.2098C56.7086 16.4065 56.6103 16.5048 56.4136 16.5048H52.1856V29.705C52.1856 29.9017 52.0873 30 51.8906 30H49.5062ZM64.2718 30C64.1735 30 64.0998 29.9754 64.0506 29.9263C64.0178 29.8607 63.985 29.7788 63.9523 29.6804C63.9195 29.5166 63.8785 29.238 63.8294 28.8447C63.7802 28.435 63.7392 28.0581 63.7065 27.7139L63.5344 26.7061V21.7898C63.5344 21.1015 63.3951 20.6181 63.1165 20.3395C62.8379 20.0445 62.3545 19.897 61.6662 19.897C60.4207 19.897 59.8144 20.3477 59.8472 21.249C59.8472 21.4457 59.757 21.544 59.5768 21.544H57.3644C57.1678 21.544 57.0613 21.3965 57.0449 21.1015C56.9466 20.0035 57.3153 19.1514 58.151 18.545C59.0032 17.9223 60.2159 17.6109 61.7891 17.6109C63.3951 17.6109 64.5668 17.9551 65.3042 18.6434C66.0581 19.3316 66.435 20.3968 66.435 21.839V26.9519C66.435 27.4763 66.4432 27.9679 66.4596 28.4268C66.4923 28.8856 66.5333 29.3035 66.5825 29.6804C66.6153 29.8935 66.5251 30 66.3121 30H64.2718ZM59.5768 30.295C58.5935 30.295 57.8397 30 57.3153 29.41C56.7909 28.8201 56.5287 27.9761 56.5287 26.8782C56.5287 26.026 56.6925 25.3377 57.0203 24.8133C57.348 24.2725 57.8806 23.8546 58.6181 23.5597C59.3719 23.2483 60.3716 23.0434 61.617 22.9451L63.9031 22.7485V24.5183L61.8628 24.6904C60.9124 24.7723 60.2569 24.9526 59.8963 25.2312C59.5358 25.5098 59.3555 25.9604 59.3555 26.5832C59.3555 27.0584 59.4539 27.4189 59.6505 27.6648C59.8472 27.8942 60.1503 28.0089 60.56 28.0089C61.0517 28.0089 61.5515 27.8532 62.0595 27.5419C62.5675 27.2141 63.2066 26.6405 63.9768 25.8212L64.0752 27.7877C63.5835 28.3285 63.1001 28.7873 62.6249 29.1642C62.1496 29.5411 61.6662 29.8197 61.1746 30C60.6829 30.1967 60.1503 30.295 59.5768 30.295ZM69.8249 30C69.6447 30 69.5545 29.9017 69.5545 29.705V13.5058C69.5545 13.3092 69.6447 13.2109 69.8249 13.2109H72.1602C72.3568 13.2109 72.4551 13.3092 72.4551 13.5058V29.705C72.4551 29.9017 72.3568 30 72.1602 30H69.8249ZM75.8503 30C75.67 30 75.5799 29.9017 75.5799 29.705V13.5058C75.5799 13.3092 75.67 13.2109 75.8503 13.2109H78.1855C78.3822 13.2109 78.4805 13.3092 78.4805 13.5058V19.5037C78.4805 19.8806 78.4723 20.2576 78.4559 20.6345C78.4559 21.0114 78.4477 21.3883 78.4313 21.7652C78.4313 22.1421 78.4231 22.519 78.4067 22.896H78.4559C78.7345 22.5354 79.0131 22.1749 79.2917 21.8144C79.5866 21.4538 79.8816 21.1015 80.1766 20.7574L82.5364 18.0534C82.602 17.9551 82.7167 17.9059 82.8806 17.9059H85.8058C85.9532 17.9059 86.0352 17.9387 86.0516 18.0043C86.0843 18.0698 86.0598 18.1517 85.9778 18.2501L81.8973 22.7485L86.322 29.6559C86.3875 29.7542 86.4039 29.8361 86.3711 29.9017C86.3384 29.9672 86.2564 30 86.1253 30H83.3968C83.2493 30 83.1346 29.9344 83.0526 29.8033L79.8816 24.7887L78.4805 26.2636V29.705C78.4805 29.9017 78.3822 30 78.1855 30H75.8503ZM91.93 30.295C90.3076 30.295 89.1113 29.9754 88.3411 29.3363C87.5873 28.6972 87.2349 27.7057 87.2841 26.3619C87.2841 26.1817 87.3824 26.0915 87.5791 26.0915H89.7914C89.9553 26.0915 90.0372 26.1817 90.0372 26.3619C90.0372 26.9519 90.1929 27.3862 90.5043 27.6648C90.8156 27.9434 91.2909 28.0826 91.93 28.0826C92.6019 28.0826 93.1017 27.9761 93.4295 27.7631C93.7572 27.55 93.9211 27.2223 93.9211 26.7798C93.9211 26.4685 93.8146 26.2063 93.6015 25.9932C93.3885 25.7638 93.0444 25.5508 92.5691 25.3541L89.7668 24.1742C88.9147 23.8137 88.3001 23.3876 87.9232 22.896C87.5627 22.4043 87.3824 21.7652 87.3824 20.9786C87.3824 19.8642 87.743 19.0285 88.464 18.4713C89.2015 17.8977 90.3322 17.6109 91.8562 17.6109C93.4131 17.6109 94.5848 17.9059 95.3714 18.4959C96.158 19.0858 96.5513 19.9462 96.5513 21.0769C96.5513 21.2572 96.453 21.3473 96.2563 21.3473H94.044C93.9621 21.3473 93.8883 21.3227 93.8228 21.2736C93.7736 21.208 93.749 21.1015 93.749 20.954C93.749 20.5935 93.5933 20.3149 93.282 20.1183C92.9706 19.9052 92.5363 19.7987 91.9792 19.7987C91.4056 19.7987 90.9795 19.897 90.7009 20.0937C90.4223 20.2903 90.283 20.5853 90.283 20.9786C90.283 21.2736 90.365 21.503 90.5288 21.6669C90.7091 21.8308 91.0533 22.0192 91.5613 22.2323L94.3636 23.4122C95.2321 23.7727 95.8548 24.207 96.2317 24.715C96.625 25.2066 96.8217 25.8539 96.8217 26.6569C96.8217 27.8532 96.4038 28.7627 95.568 29.3855C94.7323 29.9918 93.5196 30.295 91.93 30.295ZM115.966 30C115.901 30 115.835 29.9918 115.77 29.9754C115.704 29.9426 115.647 29.9017 115.598 29.8525L107.117 21.7161C106.298 20.9294 105.7 20.1838 105.323 19.4791C104.946 18.7581 104.757 18.0124 104.757 17.2422C104.757 16.0132 105.118 15.1036 105.839 14.5137C106.56 13.9073 107.609 13.6042 108.985 13.6042C110.247 13.6042 111.222 13.8991 111.91 14.4891C112.599 15.0627 112.943 15.8902 112.943 16.9718C112.943 17.5126 112.82 18.0452 112.574 18.5696C112.328 19.0776 111.968 19.5939 111.493 20.1183C111.034 20.6427 110.444 21.1671 109.723 21.6915L108.027 20.1428C108.535 19.7823 108.961 19.4382 109.305 19.1104C109.649 18.7827 109.903 18.4631 110.067 18.1517C110.231 17.8404 110.313 17.5208 110.313 17.1931C110.313 16.7506 110.198 16.4147 109.969 16.1852C109.756 15.9558 109.395 15.8411 108.887 15.8411C108.363 15.8411 107.977 15.9722 107.732 16.2344C107.502 16.4802 107.387 16.8407 107.387 17.316C107.387 17.742 107.527 18.1927 107.805 18.668C108.084 19.1432 108.526 19.6758 109.133 20.2657L118.941 29.6313C119.039 29.7132 119.072 29.7952 119.039 29.8771C119.006 29.959 118.924 30 118.793 30H115.966ZM109.133 30.295C107.92 30.295 106.92 30.1147 106.134 29.7542C105.364 29.3773 104.79 28.8693 104.413 28.2301C104.036 27.5746 103.848 26.829 103.848 25.9932C103.848 25.4033 103.93 24.8625 104.094 24.3708C104.257 23.8628 104.495 23.3958 104.806 22.9697C105.134 22.5272 105.528 22.1012 105.986 21.6915C106.462 21.2818 107.011 20.8639 107.633 20.4378L108.936 22.2814C108.33 22.7567 107.846 23.1827 107.486 23.5597C107.125 23.9366 106.871 24.3053 106.724 24.6658C106.576 25.01 106.503 25.4033 106.503 25.8457C106.503 26.4849 106.74 27.0011 107.215 27.3944C107.691 27.7877 108.395 27.9843 109.329 27.9843C110.559 27.9843 111.534 27.7139 112.255 27.1731C112.992 26.6323 113.525 25.8539 113.852 24.8379C114.197 23.8055 114.369 22.5682 114.369 21.1261C114.369 20.9294 114.467 20.8311 114.664 20.8311H116.704C116.901 20.8311 116.999 20.9294 116.999 21.1261C116.999 23.0434 116.704 24.6904 116.114 26.067C115.54 27.4271 114.672 28.4759 113.508 29.2134C112.345 29.9344 110.886 30.295 109.133 30.295ZM129.876 30C129.679 30 129.581 29.9017 129.581 29.705V16.5048H125.353C125.156 16.5048 125.058 16.4065 125.058 16.2098V14.1941C125.058 13.9975 125.156 13.8991 125.353 13.8991H136.783C136.98 13.8991 137.078 13.9975 137.078 14.1941V16.2098C137.078 16.4065 136.98 16.5048 136.783 16.5048H132.555V29.705C132.555 29.9017 132.457 30 132.26 30H129.876ZM144.642 30C144.543 30 144.47 29.9754 144.42 29.9263C144.388 29.8607 144.355 29.7788 144.322 29.6804C144.289 29.5166 144.248 29.238 144.199 28.8447C144.15 28.435 144.109 28.0581 144.076 27.7139L143.904 26.7061V21.7898C143.904 21.1015 143.765 20.6181 143.486 20.3395C143.208 20.0445 142.724 19.897 142.036 19.897C140.791 19.897 140.184 20.3477 140.217 21.249C140.217 21.4457 140.127 21.544 139.947 21.544H137.734C137.538 21.544 137.431 21.3965 137.415 21.1015C137.316 20.0035 137.685 19.1514 138.521 18.545C139.373 17.9223 140.586 17.6109 142.159 17.6109C143.765 17.6109 144.937 17.9551 145.674 18.6434C146.428 19.3316 146.805 20.3968 146.805 21.839V26.9519C146.805 27.4763 146.813 27.9679 146.829 28.4268C146.862 28.8856 146.903 29.3035 146.952 29.6804C146.985 29.8935 146.895 30 146.682 30H144.642ZM139.947 30.295C138.963 30.295 138.209 30 137.685 29.41C137.161 28.8201 136.898 27.9761 136.898 26.8782C136.898 26.026 137.062 25.3377 137.39 24.8133C137.718 24.2725 138.25 23.8546 138.988 23.5597C139.742 23.2483 140.741 23.0434 141.987 22.9451L144.273 22.7485V24.5183L142.233 24.6904C141.282 24.7723 140.627 24.9526 140.266 25.2312C139.906 25.5098 139.725 25.9604 139.725 26.5832C139.725 27.0584 139.824 27.4189 140.02 27.6648C140.217 27.8942 140.52 28.0089 140.93 28.0089C141.421 28.0089 141.921 27.8532 142.429 27.5419C142.937 27.2141 143.576 26.6405 144.347 25.8212L144.445 27.7877C143.953 28.3285 143.47 28.7873 142.995 29.1642C142.519 29.5411 142.036 29.8197 141.544 30C141.053 30.1967 140.52 30.295 139.947 30.295ZM150.195 30C150.014 30 149.924 29.9017 149.924 29.705V13.5058C149.924 13.3092 150.014 13.2109 150.195 13.2109H152.53C152.727 13.2109 152.825 13.3092 152.825 13.5058V29.705C152.825 29.9017 152.727 30 152.53 30H150.195ZM156.22 30C156.04 30 155.95 29.9017 155.95 29.705V13.5058C155.95 13.3092 156.04 13.2109 156.22 13.2109H158.555C158.752 13.2109 158.85 13.3092 158.85 13.5058V19.5037C158.85 19.8806 158.842 20.2576 158.826 20.6345C158.826 21.0114 158.818 21.3883 158.801 21.7652C158.801 22.1421 158.793 22.519 158.777 22.896H158.826C159.104 22.5354 159.383 22.1749 159.661 21.8144C159.956 21.4538 160.251 21.1015 160.546 20.7574L162.906 18.0534C162.972 17.9551 163.087 17.9059 163.25 17.9059H166.176C166.323 17.9059 166.405 17.9387 166.421 18.0043C166.454 18.0698 166.43 18.1517 166.348 18.2501L162.267 22.7485L166.692 29.6559C166.757 29.7542 166.774 29.8361 166.741 29.9017C166.708 29.9672 166.626 30 166.495 30H163.767C163.619 30 163.504 29.9344 163.422 29.8033L160.251 24.7887L158.85 26.2636V29.705C158.85 29.9017 158.752 30 158.555 30H156.22ZM172.3 30.295C170.677 30.295 169.481 29.9754 168.711 29.3363C167.957 28.6972 167.605 27.7057 167.654 26.3619C167.654 26.1817 167.752 26.0915 167.949 26.0915H170.161C170.325 26.0915 170.407 26.1817 170.407 26.3619C170.407 26.9519 170.563 27.3862 170.874 27.6648C171.185 27.9434 171.661 28.0826 172.3 28.0826C172.972 28.0826 173.472 27.9761 173.799 27.7631C174.127 27.55 174.291 27.2223 174.291 26.7798C174.291 26.4685 174.184 26.2063 173.971 25.9932C173.758 25.7638 173.414 25.5508 172.939 25.3541L170.137 24.1742C169.284 23.8137 168.67 23.3876 168.293 22.896C167.933 22.4043 167.752 21.7652 167.752 20.9786C167.752 19.8642 168.113 19.0285 168.834 18.4713C169.571 17.8977 170.702 17.6109 172.226 17.6109C173.783 17.6109 174.955 17.9059 175.741 18.4959C176.528 19.0858 176.921 19.9462 176.921 21.0769C176.921 21.2572 176.823 21.3473 176.626 21.3473H174.414C174.332 21.3473 174.258 21.3227 174.193 21.2736C174.143 21.208 174.119 21.1015 174.119 20.954C174.119 20.5935 173.963 20.3149 173.652 20.1183C173.34 19.9052 172.906 19.7987 172.349 19.7987C171.775 19.7987 171.349 19.897 171.071 20.0937C170.792 20.2903 170.653 20.5853 170.653 20.9786C170.653 21.2736 170.735 21.503 170.899 21.6669C171.079 21.8308 171.423 22.0192 171.931 22.2323L174.733 23.4122C175.602 23.7727 176.225 24.207 176.602 24.715C176.995 25.2066 177.192 25.8539 177.192 26.6569C177.192 27.8532 176.774 28.7627 175.938 29.3855C175.102 29.9918 173.889 30.295 172.3 30.295Z" fill="white"/>
<path d="M31.641 5.01009C31.5712 5.01009 31.5006 5.01009 31.4291 5.00926C31.1956 5.00926 30.9621 5.00926 30.7278 5.00926C30.5599 5.00926 30.392 5.00843 30.2242 5.00843C29.7688 5.0076 29.3126 5.0076 28.8572 5.0076C28.5722 5.0076 28.2863 5.00677 28.0013 5.00677C27.0041 5.00593 26.0077 5.00593 25.0105 5.00593C24.084 5.00593 23.1583 5.0051 22.2317 5.00344C21.434 5.00261 20.637 5.00178 19.8393 5.00178C19.3648 5.00261 18.8895 5.00178 18.4141 5.00095C17.9662 5.00012 17.5183 5.00012 17.0704 5.00095C16.9067 5.00095 16.7438 5.00095 16.5801 5.00012C15.2638 4.99679 13.9642 5.06244 12.6778 5.36908C12.6022 5.38736 12.5266 5.40481 12.4484 5.42309C9.88982 6.04634 7.58548 7.18562 5.59941 8.92655C5.54374 8.97392 5.48806 9.02045 5.43072 9.06865C2.69344 11.3647 0.837004 14.8241 0.197971 18.3168C0.183014 18.3949 0.168055 18.473 0.153097 18.5536C0.00185687 19.4668 -0.00146679 20.3751 0.000195197 21.2983C0.000195197 21.3814 0.000195197 21.4637 0.000195197 21.5493C0.00268817 22.7999 0.05421 23.9966 0.36417 25.214C0.388268 25.3112 0.38827 25.3112 0.412369 25.4109C0.750582 26.7463 1.30319 27.987 1.94305 29.2027C2.01701 29.3465 2.01701 29.3465 2.0918 29.4928C3.95738 32.9488 7.49906 35.7102 11.2294 36.8479C12.6936 37.275 14.1711 37.5243 15.6968 37.5259C15.7791 37.5268 15.8613 37.5268 15.9461 37.5276C16.1231 37.5284 16.3001 37.5293 16.4779 37.5293C16.7613 37.5301 17.0447 37.5318 17.3289 37.5343C18.1349 37.5392 18.941 37.5434 19.747 37.5467C26.8778 37.4927 26.8778 37.4927 33.2714 40.338C33.3595 40.4028 33.4468 40.4676 33.5373 40.5341C34.085 40.9421 34.5935 41.3776 35.0871 41.8479C35.2658 42 35.2658 42 35.432 42C35.5159 40.3114 35.5276 38.6253 35.5284 36.9351C35.5284 36.5512 35.5292 36.1673 35.5292 35.7842C35.5309 34.949 35.5309 34.1147 35.5317 33.2796C35.5317 32.7577 35.5317 32.2359 35.5325 31.7132C35.5334 30.2647 35.5342 28.8155 35.5342 27.3662C35.5342 27.274 35.535 27.1818 35.535 27.087C35.535 26.9948 35.535 26.9017 35.535 26.807C35.535 26.6192 35.535 26.4322 35.535 26.2444C35.535 26.1513 35.535 26.0591 35.535 25.9627C35.535 24.4536 35.5367 22.9437 35.5384 21.4338C35.5409 19.8798 35.5417 18.3259 35.5417 16.7711C35.5417 15.9002 35.5425 15.0293 35.5433 14.1585C35.545 13.4181 35.5458 12.6776 35.545 11.9372C35.5442 11.56 35.5442 11.1827 35.5458 10.8054C35.5467 10.4589 35.5467 10.1132 35.5458 9.76751C35.5458 9.64287 35.5458 9.51822 35.5467 9.39357C35.5525 8.22852 35.437 7.02607 34.6426 6.11198C34.5736 6.05381 34.5054 5.99565 34.4348 5.93498C34.3725 5.88263 34.311 5.82945 34.247 5.7746C34.0035 5.59095 33.7659 5.46547 33.4891 5.33833C33.3994 5.29595 33.3096 5.25357 33.2174 5.20953C32.7022 5.01508 32.1837 5.00926 31.641 5.01009Z" fill="url(#paint0_linear_151_7)"/>
<g filter="url(#filter0_d_151_7)">
<path d="M28.3398 9.82678C28.2909 9.82678 28.2414 9.82678 28.1912 9.82621C28.0275 9.82621 27.8637 9.82621 27.6994 9.82621C27.5816 9.82621 27.4639 9.82564 27.3462 9.82564C27.0268 9.82506 26.7069 9.82506 26.3875 9.82506C26.1876 9.82506 25.9871 9.82449 25.7872 9.82449C25.0879 9.82392 24.3891 9.82392 23.6898 9.82392C23.04 9.82392 22.3907 9.82334 21.7409 9.8222C21.1814 9.82162 20.6225 9.82105 20.0631 9.82105C19.7303 9.82162 19.3969 9.82105 19.0636 9.82048C18.7495 9.81991 18.4353 9.81991 18.1212 9.82048C18.0064 9.82048 17.8922 9.82048 17.7774 9.81991C16.8542 9.81761 15.9427 9.86288 15.0406 10.0743C14.9875 10.0869 14.9345 10.0989 14.8797 10.1115C13.0853 10.5413 11.4692 11.3268 10.0764 12.5272C10.0373 12.5598 9.99827 12.5919 9.95806 12.6252C8.03835 14.2083 6.7364 16.5935 6.28823 19.0017C6.27774 19.0556 6.26725 19.1094 6.25676 19.165C6.15069 19.7947 6.14836 20.4209 6.14953 21.0575C6.14953 21.1148 6.14953 21.1715 6.14953 21.2305C6.15128 22.0929 6.18741 22.9179 6.40479 23.7573C6.42169 23.8244 6.42169 23.8244 6.43859 23.8931C6.67579 24.8139 7.06334 25.6693 7.51209 26.5076C7.56396 26.6067 7.56396 26.6067 7.61641 26.7075C8.92478 29.0905 11.4086 30.9945 14.0248 31.7789C15.0516 32.0734 16.0878 32.2453 17.1579 32.2464C17.2155 32.247 17.2732 32.247 17.3327 32.2475C17.4568 32.2481 17.581 32.2487 17.7057 32.2487C17.9044 32.2493 18.1031 32.2504 18.3025 32.2521C18.8678 32.2556 19.4331 32.2584 19.9984 32.2607C24.9993 32.2235 24.9993 32.2235 29.4833 34.1853C29.5451 34.23 29.6062 34.2747 29.6698 34.3205C30.0538 34.6019 30.4105 34.9021 30.7567 35.2264C30.882 35.3313 30.882 35.3313 30.9985 35.3313C31.0574 34.167 31.0656 33.0044 31.0661 31.839C31.0661 31.5743 31.0667 31.3096 31.0667 31.0455C31.0679 30.4696 31.0679 29.8944 31.0685 29.3185C31.0685 28.9587 31.0685 28.5989 31.0691 28.2385C31.0696 27.2398 31.0702 26.2406 31.0702 25.2413C31.0702 25.1777 31.0708 25.1141 31.0708 25.0488C31.0708 24.9852 31.0708 24.921 31.0708 24.8557C31.0708 24.7262 31.0708 24.5973 31.0708 24.4678C31.0708 24.4036 31.0708 24.34 31.0708 24.2736C31.0708 23.2331 31.072 22.192 31.0731 21.1509C31.0749 20.0794 31.0755 19.008 31.0755 17.936C31.0755 17.3355 31.076 16.735 31.0766 16.1346C31.0778 15.6241 31.0784 15.1135 31.0778 14.603C31.0772 14.3429 31.0772 14.0828 31.0784 13.8227C31.079 13.5837 31.079 13.3454 31.0784 13.107C31.0784 13.0211 31.0784 12.9351 31.079 12.8492C31.083 12.0459 31.002 11.2168 30.4449 10.5865C30.3965 10.5464 30.3487 10.5063 30.2992 10.4645C30.2555 10.4284 30.2124 10.3917 30.1675 10.3539C29.9967 10.2273 29.83 10.1408 29.636 10.0531C29.573 10.0239 29.5101 9.99466 29.4454 9.96429C29.0841 9.83022 28.7204 9.82621 28.3398 9.82678Z" fill="#01A3F6"/>
</g>
<g filter="url(#filter1_d_151_7)">
<path d="M24.6713 14.7267C24.6415 14.7267 24.6113 14.7267 24.5807 14.7264C24.4808 14.7264 24.3809 14.7264 24.2806 14.7264C24.2088 14.7264 24.137 14.7261 24.0652 14.7261C23.8704 14.7257 23.6752 14.7257 23.4804 14.7257C23.3585 14.7257 23.2362 14.7254 23.1142 14.7254C22.6876 14.7251 22.2614 14.7251 21.8348 14.7251C21.4384 14.7251 21.0424 14.7247 20.646 14.724C20.3047 14.7237 19.9638 14.7234 19.6225 14.7234C19.4195 14.7237 19.2162 14.7234 19.0128 14.723C18.8212 14.7227 18.6296 14.7227 18.438 14.723C18.3679 14.723 18.2983 14.723 18.2282 14.7227C17.6651 14.7214 17.1091 14.7479 16.5588 14.8719C16.5264 14.8793 16.4941 14.8863 16.4607 14.8937C15.3661 15.1457 14.3803 15.6062 13.5306 16.31C13.5068 16.3292 13.483 16.348 13.4585 16.3675C12.2874 17.2957 11.4932 18.6942 11.2199 20.1062C11.2135 20.1377 11.2071 20.1693 11.2007 20.2019C11.136 20.5711 11.1345 20.9383 11.1352 21.3115C11.1352 21.3451 11.1352 21.3784 11.1352 21.413C11.1363 21.9186 11.1584 22.4023 11.291 22.8945C11.3013 22.9338 11.3013 22.9338 11.3116 22.9741C11.4563 23.514 11.6927 24.0155 11.9664 24.507C11.998 24.5651 11.9981 24.5651 12.03 24.6242C12.8281 26.0214 14.3433 27.1378 15.9391 27.5977C16.5655 27.7703 17.1976 27.8711 17.8503 27.8718C17.8855 27.8721 17.9207 27.8721 17.957 27.8725C18.0327 27.8728 18.1084 27.8731 18.1845 27.8731C18.3057 27.8735 18.4269 27.8741 18.5485 27.8751C18.8934 27.8772 19.2382 27.8788 19.583 27.8802C22.6336 27.8584 22.6336 27.8584 25.3688 29.0086C25.4065 29.0348 25.4438 29.061 25.4826 29.0879C25.7169 29.2528 25.9344 29.4289 26.1456 29.619C26.222 29.6805 26.222 29.6805 26.2931 29.6805C26.329 28.9979 26.334 28.3162 26.3344 27.6329C26.3344 27.4777 26.3347 27.3225 26.3347 27.1677C26.3354 26.83 26.3354 26.4927 26.3358 26.1551C26.3358 25.9442 26.3358 25.7332 26.3362 25.5219C26.3365 24.9363 26.3369 24.3504 26.3369 23.7646C26.3369 23.7273 26.3372 23.69 26.3372 23.6517C26.3372 23.6144 26.3372 23.5768 26.3372 23.5385C26.3372 23.4626 26.3372 23.387 26.3372 23.311C26.3372 23.2734 26.3372 23.2361 26.3372 23.1972C26.3372 22.5871 26.3379 21.9767 26.3386 21.3663C26.3397 20.7381 26.3401 20.1099 26.3401 19.4813C26.3401 19.1292 26.3404 18.7772 26.3408 18.4251C26.3415 18.1258 26.3418 17.8265 26.3415 17.5271C26.3411 17.3746 26.3411 17.2221 26.3418 17.0696C26.3422 16.9295 26.3422 16.7898 26.3418 16.65C26.3418 16.5996 26.3418 16.5492 26.3422 16.4988C26.3447 16.0278 26.2953 15.5417 25.9554 15.1722C25.9259 15.1487 25.8968 15.1252 25.8665 15.1006C25.8399 15.0795 25.8136 15.058 25.7862 15.0358C25.682 14.9616 25.5804 14.9108 25.462 14.8594C25.4236 14.8423 25.3852 14.8252 25.3457 14.8074C25.1253 14.7288 24.9035 14.7264 24.6713 14.7267Z" fill="white"/>
</g>
<defs>
<filter id="filter0_d_151_7" x="4.44978" y="8.97001" width="26.6293" height="27.2111" filterUnits="userSpaceOnUse" color-interpolation-filters="sRGB">
<feFlood flood-opacity="0" result="BackgroundImageFix"/>
<feColorMatrix in="SourceAlpha" type="matrix" values="0 0 0 0 0 0 0 0 0 0 0 0 0 0 0 0 0 0 127 0" result="hardAlpha"/>
<feOffset dx="-0.849816"/>
<feGaussianBlur stdDeviation="0.424908"/>
<feComposite in2="hardAlpha" operator="out"/>
<feColorMatrix type="matrix" values="0 0 0 0 0 0 0 0 0 0.337255 0 0 0 0 0.992157 0 0 0 0.41 0"/>
<feBlend mode="normal" in2="BackgroundImageFix" result="effect1_dropShadow_151_7"/>
<feBlend mode="normal" in="SourceGraphic" in2="effect1_dropShadow_151_7" result="shape"/>
</filter>
<filter id="filter1_d_151_7" x="9.44638" y="13.8782" width="16.8959" height="16.6466" filterUnits="userSpaceOnUse" color-interpolation-filters="sRGB">
<feFlood flood-opacity="0" result="BackgroundImageFix"/>
<feColorMatrix in="SourceAlpha" type="matrix" values="0 0 0 0 0 0 0 0 0 0 0 0 0 0 0 0 0 0 127 0" result="hardAlpha"/>
<feOffset dx="-0.844438"/>
<feGaussianBlur stdDeviation="0.422219"/>
<feComposite in2="hardAlpha" operator="out"/>
<feColorMatrix type="matrix" values="0 0 0 0 0 0 0 0 0 0.337255 0 0 0 0 0.992157 0 0 0 0.41 0"/>
<feBlend mode="normal" in2="BackgroundImageFix" result="effect1_dropShadow_151_7"/>
<feBlend mode="normal" in="SourceGraphic" in2="effect1_dropShadow_151_7" result="shape"/>
</filter>
<linearGradient id="paint0_linear_151_7" x1="12.4869" y1="7.49297" x2="32.2645" y2="40.7326" gradientUnits="userSpaceOnUse">
<stop stop-color="#009EF7"/>
<stop offset="1" stop-color="#0052FE"/>
</linearGradient>
</defs>
</svg>
